<svg aria-hidden="true" style="position: absolute; width: 0; height: 0; overflow: hidden;" version="1.1" xmlns="http://www.w3.org/2000/svg" xmlns:xlink="http://www.w3.org/1999/xlink">
<defs>
<symbol id="icon-magnifier" viewBox="0 0 32 32">
<title>magnifier</title>
<path d="M29.156 29.961l-0.709 0.709c-0.785 0.784-2.055 0.784-2.838 0l-5.676-5.674c-0.656-0.658-0.729-1.644-0.281-2.412l-3.104-3.102c-1.669 1.238-3.728 1.979-5.965 1.979-5.54 0-10.031-4.491-10.031-10.031s4.491-10.032 10.031-10.032c5.541 0 10.031 4.491 10.031 10.032 0 2.579-0.98 4.923-2.58 6.7l3.035 3.035c0.768-0.447 1.754-0.375 2.41 0.283l5.676 5.674c0.784 0.785 0.784 2.056 0.001 2.839zM18.088 11.389c0-4.155-3.369-7.523-7.524-7.523s-7.524 3.367-7.524 7.523 3.368 7.523 7.523 7.523 7.525-3.368 7.525-7.523z"></path>
</symbol>
<symbol id="icon-user-circle" viewBox="0 0 28 28">
<title>user-circle</title>
<path d="M23.797 20.922c-0.406-2.922-1.594-5.516-4.25-5.875-1.375 1.5-3.359 2.453-5.547 2.453s-4.172-0.953-5.547-2.453c-2.656 0.359-3.844 2.953-4.25 5.875 2.172 3.063 5.75 5.078 9.797 5.078s7.625-2.016 9.797-5.078zM20 10c0-3.313-2.688-6-6-6s-6 2.688-6 6 2.688 6 6 6 6-2.688 6-6zM28 14c0 7.703-6.25 14-14 14-7.734 0-14-6.281-14-14 0-7.734 6.266-14 14-14s14 6.266 14 14z"></path>
</symbol>
<symbol id="icon-upload2" viewBox="0 0 32 32">
<title>upload2</title>
<path d="M0 28h32v2h-32zM32 24v2h-32v-2l4-8h8v4h8v-4h8zM7 10l9-9 9 9h-7v8h-4v-8z"></path>
</symbol>
<symbol id="icon-thumbs-up" viewBox="0 0 24 24">
<title>thumbs-up</title>
<path d="M23.016 9.984l-0.047 0.094h0.047v1.922c0 0.281-0.047 0.516-0.141 0.75l-3.047 7.031c-0.281 0.703-0.984 1.219-1.828 1.219h-9c-1.078 0-2.016-0.938-2.016-2.016v-9.984c0-0.563 0.234-1.031 0.609-1.406l6.563-6.609 1.078 1.078c0.281 0.281 0.422 0.609 0.422 1.031v0.328l-0.984 4.594h6.328c1.078 0 2.016 0.891 2.016 1.969zM0.984 21v-12h4.031v12h-4.031z"></path>
</symbol>
<symbol id="icon-thumbs-down" viewBox="0 0 24 24">
<title>thumbs-down</title>
<path d="M18.984 3h4.031v12h-4.031v-12zM15 3c1.078 0 2.016 0.938 2.016 2.016v9.984c0 0.563-0.234 1.031-0.609 1.406l-6.563 6.609-1.078-1.078c-0.281-0.281-0.422-0.609-0.422-1.031v-0.328l0.984-4.594h-6.328c-1.078 0-2.016-0.891-2.016-1.969l0.047-0.094h-0.047v-1.922c0-0.281 0.047-0.516 0.141-0.75l3.047-7.031c0.281-0.703 0.984-1.219 1.828-1.219h9z"></path>
</symbol>
<symbol id="icon-camera" viewBox="0 0 48 48">
<title>camera</title>
<path d="M9 40c0 2.21 1.79 4 4 4h31c2.21 0 4-1.79 4-4l-0-23c0-2.21-1.79-4-4-4l-12 0c-1.1 0-2-0.9-2-2s0.9-2 2-2h13.5c1.38-0 2.5-1.12 2.5-2.5s-1.12-2.5-2.5-2.5h-16.5c-1.87 0-3.561 1.27-4 3l-1.99 6h-4.090c-1.34 0-2.53 0.53-3.39 1.38l-5.060 5.080c-0.91 0.9-1.47 2.16-1.47 3.54v3h-4v-0.5c0-1.38-1.12-2.5-2.5-2.5s-2.5 1.12-2.5 2.5v13c0 1.38 1.12 2.5 2.5 2.5s2.5-1.12 2.5-2.5v-0.5h4v2zM22.2 29h18.6c1.22 0 2.2 0.98 2.2 2.2v5.6c0 1.22-0.98 2.2-2.2 2.2h-18.6c-1.22 0-2.2-0.98-2.2-2.2v-5.6c0-1.22 0.98-2.2 2.2-2.2zM20 20.5c0-1.38 1.12-2.5 2.5-2.5s2.5 1.12 2.5 2.5-1.12 2.5-2.5 2.5-2.5-1.12-2.5-2.5z"></path>
</symbol>
<symbol id="icon-notice" viewBox="0 0 32 32">
<title>notice</title>
<path d="M15.5 3c-7.456 0-13.5 6.044-13.5 13.5s6.044 13.5 13.5 13.5 13.5-6.044 13.5-13.5-6.044-13.5-13.5-13.5zM15.5 27c-5.799 0-10.5-4.701-10.5-10.5s4.701-10.5 10.5-10.5 10.5 4.701 10.5 10.5-4.701 10.5-10.5 10.5zM15.5 10c-0.828 0-1.5 0.671-1.5 1.5v5.062c0 0.828 0.672 1.5 1.5 1.5s1.5-0.672 1.5-1.5v-5.062c0-0.829-0.672-1.5-1.5-1.5zM15.5 20c-0.828 0-1.5 0.672-1.5 1.5s0.672 1.5 1.5 1.5 1.5-0.672 1.5-1.5-0.672-1.5-1.5-1.5z"></path>
</symbol>
</defs>
</svg>
